<svg width="25" height="21" viewBox="0 0 25 21" fill="none" xmlns="http://www.w3.org/2000/svg">
<ellipse cx="12.4932" cy="10.3442" rx="12.4932" ry="10.3442" fill="#FFB400"/>
<g clip-path="url(#clip0_2_468)">
<path d="M9.42043 6.82406C9.42027 7.09078 9.29215 7.34653 9.06425 7.53503C8.83636 7.72354 8.52735 7.82937 8.20522 7.82924C7.88308 7.8291 7.5742 7.72302 7.34653 7.53432C7.11886 7.34563 6.99105 7.08977 6.99121 6.82305C6.99137 6.55633 7.11949 6.30058 7.34739 6.11207C7.57529 5.92357 7.8843 5.81774 8.20643 5.81787C8.52857 5.818 8.83744 5.92409 9.06511 6.11278C9.29278 6.30148 9.4206 6.55733 9.42043 6.82406ZM9.45687 8.57394H7.02765V14.8695H9.45687V8.57394ZM13.295 8.57394H10.878V14.8695H13.2708V11.5658C13.2708 9.72545 16.1676 9.55448 16.1676 11.5658V14.8695H18.5665V10.882C18.5665 7.77945 14.2789 7.89511 13.2708 9.41872L13.295 8.57394Z" fill="#2B2B2B"/>
</g>
<defs>
<clipPath id="clip0_2_468">
<rect width="14.5753" height="12.0682" fill="white" transform="translate(5.20557 4.31006)"/>
</clipPath>
</defs>
</svg>
