<svg width="25" height="21" viewBox="0 0 25 21" fill="none" xmlns="http://www.w3.org/2000/svg">
<ellipse cx="12.4932" cy="10.3442" rx="12.4932" ry="10.3442" fill="#FFB400"/>
<g clip-path="url(#clip0_2_464)">
<path d="M18.6649 7.15435C18.2012 7.32416 17.7095 7.43568 17.2061 7.48522C17.7367 7.22246 18.1339 6.80891 18.3235 6.32165C17.8256 6.56704 17.2796 6.73901 16.7105 6.83203C16.3283 6.49341 15.8217 6.26883 15.2694 6.19322C14.7171 6.1176 14.1501 6.19518 13.6566 6.4139C13.163 6.63261 12.7706 6.98021 12.5402 7.40265C12.3099 7.82509 12.2546 8.29871 12.3829 8.74987C11.373 8.70796 10.385 8.49067 9.48317 8.1121C8.58129 7.73353 7.78565 7.20215 7.1479 6.55245C6.92216 6.87349 6.80353 7.23844 6.80416 7.60993C6.80416 8.33905 7.25236 8.98319 7.93375 9.36032C7.53051 9.34981 7.13614 9.25964 6.78352 9.09733V9.12348C6.78364 9.60907 6.98658 10.0797 7.35794 10.4555C7.72929 10.8314 8.2462 11.0893 8.82103 11.1856C8.44669 11.2696 8.05419 11.282 7.67322 11.2218C7.83529 11.6398 8.15117 12.0054 8.57664 12.2673C9.00211 12.5292 9.51586 12.6744 10.046 12.6826C9.51911 13.0252 8.91588 13.2784 8.27074 13.4279C7.6256 13.5773 6.95121 13.62 6.28613 13.5535C7.44712 14.1717 8.79862 14.4999 10.179 14.4988C14.851 14.4988 17.4059 11.2942 17.4059 8.51504C17.4059 8.42453 17.4029 8.33301 17.398 8.24351C17.8953 7.94591 18.3245 7.57725 18.6655 7.15486L18.6649 7.15435Z" fill="#2B2B2B"/>
</g>
<defs>
<clipPath id="clip0_2_464">
<rect width="14.5753" height="12.0682" fill="white" transform="translate(5.20557 4.31006)"/>
</clipPath>
</defs>
</svg>
